<?xml version="1.0" standalone="no"?><!DOCTYPE svg PUBLIC "-//W3C//DTD SVG 1.1//EN" "http://www.w3.org/Graphics/SVG/1.1/DTD/svg11.dtd"><svg t="1571238829805" class="icon" viewBox="0 0 1024 1024" version="1.1" xmlns="http://www.w3.org/2000/svg" p-id="44305" xmlns:xlink="http://www.w3.org/1999/xlink" width="200" height="200"><defs><style type="text/css"></style></defs><path d="M873.156923 118.862769h-109.725538l54.862769 61.715693 54.862769-61.715693z m-256 671.980308h281.127385a20.637538 20.637538 0 0 0 20.558769-20.558769 20.637538 20.637538 0 0 0-20.558769-20.55877H617.156923a20.637538 20.637538 0 0 0-20.598154 20.55877c0 11.303385 9.255385 20.558769 20.598154 20.558769z m0-178.254769h281.127385a20.637538 20.637538 0 0 0 20.558769-20.598154 20.637538 20.637538 0 0 0-20.558769-20.558769H617.156923a20.637538 20.637538 0 0 0-20.598154 20.558769c0 11.342769 9.255385 20.598154 20.598154 20.598154z m0-178.294154h281.127385a20.637538 20.637538 0 0 0 20.558769-20.598154 20.637538 20.637538 0 0 0-20.558769-20.558769H617.156923a20.637538 20.637538 0 0 0-20.598154 20.558769c0 11.342769 9.255385 20.598154 20.598154 20.598154zM982.843077 0H41.156923C18.392615 0 0 18.392615 0 41.156923v941.686154C0 1005.607385 18.392615 1024 41.156923 1024h941.686154c22.764308 0 41.156923-18.392615 41.156923-41.156923V41.156923C1024 18.392615 1005.607385 0 982.843077 0zM491.441231 982.843077H41.156923V299.441231h450.284308v683.401846z m491.401846 0H532.558769V299.441231h450.284308v683.401846z m0-724.558769H41.156923V41.156923h941.686154v217.127385zM125.715692 170.299077h324.568616a20.558769 20.558769 0 1 0 0-41.156923H125.715692a20.558769 20.558769 0 1 0 0 41.156923z m0 620.544h281.127385a20.637538 20.637538 0 0 0 20.598154-20.558769 20.637538 20.637538 0 0 0-20.598154-20.55877H125.715692a20.637538 20.637538 0 0 0-20.558769 20.55877c0 11.303385 9.255385 20.558769 20.558769 20.558769z m0-178.254769h281.127385a20.637538 20.637538 0 0 0 20.598154-20.598154 20.637538 20.637538 0 0 0-20.598154-20.558769H125.715692a20.637538 20.637538 0 0 0-20.558769 20.558769c0 11.342769 9.255385 20.598154 20.558769 20.598154z m0-178.294154h281.127385a20.637538 20.637538 0 0 0 20.598154-20.598154 20.637538 20.637538 0 0 0-20.598154-20.558769H125.715692a20.637538 20.637538 0 0 0-20.558769 20.558769c0 11.342769 9.255385 20.598154 20.558769 20.598154z" p-id="44306"></path></svg>