<svg width="18" height="18" xmlns="http://www.w3.org/2000/svg"><g><rect x="3.75" width="10.5" height="4.5" rx="2.25"/><rect x="3.75" y="6.75" width="10.5" height="4.5" rx="2.25"/><rect x="3.75" y="13.5" width="10.5" height="4.5" rx="2.25"/><path d="M3.197 2.25h0A2.25 2.25 0 0 0 .947 4.5v2.25A2.25 2.25 0 0 0 3.197 9h0M3.197 9.75h0A2.25 2.25 0 0 0 .947 12v2.25a2.25 2.25 0 0 0 2.25 2.25h0" stroke-opacity=".3" stroke="#FFF" stroke-width=".75" stroke-linecap="round"/><path d="M17.25 13.5H18l-1.5 3-1.642-3h.892v-12h1.5v12z"/></g></svg>