<svg width="18" height="18" xmlns="http://www.w3.org/2000/svg"><g><rect stroke="#FFF" stroke-width=".75" fill-opacity=".3" x=".375" y=".375" width="6.75" height="6.75" rx="1.5"/><path d="M1.5 10.5H6A1.5 1.5 0 0 1 7.5 12v4.5A1.5 1.5 0 0 1 6 18H1.5A1.5 1.5 0 0 1 0 16.5V12a1.5 1.5 0 0 1 1.5-1.5zm1.011 5.43l-1.225-1.36a.308.308 0 1 0-.457.412l1.45 1.609c.08.09.204.121.314.09a.306.306 0 0 0 .153-.093l3.67-4.075a.308.308 0 0 0-.458-.411L2.511 15.93z"/><path d="M9.75 12.75h3v3h-3v-3zm5.25 0h3v3h-3v-3zM9.75 2.25h3v3h-3v-3zm5.25 0h3v3h-3v-3z" fill-opacity=".3"/></g></svg>