<?xml version="1.0" encoding="UTF-8"?>
<svg width="18px" height="18px" viewBox="0 0 18 18" version="1.1" xmlns="http://www.w3.org/2000/svg" xmlns:xlink="http://www.w3.org/1999/xlink">
    <!-- Generator: Sketch 54.1 (76490) - https://sketchapp.com -->
    <g id="清空" stroke="none" stroke-width="1" fill="none" fill-rule="evenodd">
        <path d="M9.91155511,2.0442649 L12.9115551,2.0442649 C14.5684094,2.0442649 15.9115551,3.38741065 15.9115551,5.0442649 L6.91155511,5.0442649 C6.91155511,3.38741065 8.25470086,2.0442649 9.91155511,2.0442649 Z M14.7573469,15.8384111 L14.2169344,13.0442127 L13.6236495,15.8244443 C12.6889535,15.798373 11.7257087,15.7363971 10.733915,15.6385167 L10.4653561,12.8419811 L9.62415849,15.5154747 C9.61529223,15.5143859 9.60642379,15.5132943 9.59755315,15.5122 C8.90798805,15.4271339 8.24497866,15.3387831 7.60852499,15.2471477 L8.01543059,12.603049 L6.50867921,15.0813562 C5.23437759,14.8802031 4.07785465,14.664482 3.0391104,14.4341929 C3.50230515,13.863918 4.17698,12.9895887 5.06313495,11.8112051 C5.9492899,10.6328215 6.54958847,8.81019376 6.86403068,6.34332181 L16.0311215,6.46420856 L16.7027071,15.7740266 C16.069391,15.8145256 15.4209376,15.8359871 14.7573469,15.8384111 Z M11.5843828,-2.05381131 L14.0096313,-2.05381131 L14.0096313,0.946188693 C12.0096313,0.946188693 11.0096313,0.946188693 11.0096313,0.946188693 C11.0096313,0.946188693 11.2012151,-0.0538113071 11.5843828,-2.05381131 Z" id="形状结合" fill="#FFFFFF" transform="translate(9.870909, 6.892300) rotate(-330.000000) translate(-9.870909, -6.892300) "></path>
    </g>
</svg>