<svg class="icon" viewBox="0 0 1024 1024" xmlns="http://www.w3.org/2000/svg" width="16" height="16"><defs><style/></defs><path d="M925.731 288.698c-1.261-1.18-3.607-3.272-6.902-6.343-5.486-5.112-11.615-10.758-18.236-16.891a7432.346 7432.346 0 0 0-56.046-51.397c-2.038-1.848-2.038-1.835-4.077-3.682-24.075-21.795-44.156-39.556-58.996-52.076-8.682-7.325-15.517-12.807-20.539-16.426-3.333-2.402-6.043-4.13-8.715-5.396-3.365-1.595-6.48-2.566-10.905-2.483A21.65 21.65 0 0 0 720 155.734V347h170v595H358.689C323.429 942 295 913.132 295 877.922V177h361.205c11.736 0 21.25-9.771 21.25-21.5s-9.514-21.5-21.25-21.5H252v679h-52.421C166.646 813 140 786.928 140 754.678V72h566.286C739.29 72 766 98.154 766 130.404V134h40v-3.596C806 76.596 761.271 33 706.286 33H100v721.678C100 808.463 144.642 852 199.579 852H252v25.922C252 936.612 299.979 984 358.689 984H932V304h.433c-.001-5-2.237-11.122-6.702-15.302zM762 304V197.937c14 11.479 30.3 26.369 49.711 43.942 2.022 1.832 2.136 1.832 4.157 3.665 17.923 16.259 36.957 33.492 55.779 50.926 2.878 2.666 5.713 5.531 8.391 7.531H762z"/><path d="M816.936 436H407.295c-10.996 0-19.91 8.727-19.91 19.5 0 10.77 8.914 19.5 19.91 19.5h409.641c11 0 19.914-8.73 19.914-19.5 0-10.773-8.914-19.5-19.914-19.5zM816.936 553H407.295c-10.996 0-19.91 8.727-19.91 19.5 0 10.774 8.914 19.5 19.91 19.5h409.641c11 0 19.914-8.726 19.914-19.5 0-10.773-8.914-19.5-19.914-19.5zM816.936 689H407.295c-10.996 0-19.91 8.729-19.91 19.503 0 10.769 8.914 19.497 19.91 19.497h409.641c11 0 19.914-8.729 19.914-19.497 0-10.774-8.914-19.503-19.914-19.503z"/></svg>