<svg width="18" height="18" viewBox="0 0 18 18" xmlns="http://www.w3.org/2000/svg"><g fill="none" fill-rule="evenodd"><rect stroke="#FFF" stroke-width=".75" x=".375" y=".375" width="17.25" height="17.25" rx="3"/><g fill="#FFF"><path d="M10.076 3.402l3.182 3.182-6.364 6.364-3.182-3.182z"/><path d="M10.607 3.402l2.651 2.651 1.326-1.326c.44-.439.44-1.151 0-1.59l-1.06-1.061a1.125 1.125 0 0 0-1.592 0l-1.325 1.326z" stroke="#FFF" stroke-width=".75" fill-opacity=".3"/><path d="M3.14 10.337l-.555.556-1.231 3.939.491.49 3.922-1.247.556-.556z"/></g><path d="M14.25 8.25h1.5v1.5h-3l1.5-1.5zm-3 3h4.5v1.5h-6l1.5-1.5zm-3 3h7.5v1.5h-9l1.5-1.5z" fill-opacity=".3" fill="#FFF"/></g></svg>