<?xml version="1.0" standalone="no"?><!DOCTYPE svg PUBLIC "-//W3C//DTD SVG 1.1//EN" "http://www.w3.org/Graphics/SVG/1.1/DTD/svg11.dtd"><svg t="1571239231223" class="icon" viewBox="0 0 1024 1024" version="1.1" xmlns="http://www.w3.org/2000/svg" p-id="55636" xmlns:xlink="http://www.w3.org/1999/xlink" width="200" height="200"><defs><style type="text/css"></style></defs><path d="M736 192c51.2 0 96 44.8 96 96v441.6c0 57.6-44.8 102.4-96 102.4h-448c-51.2 0-96-44.8-96-96v-448C192 236.8 236.8 192 288 192h448z m44.8 544v-448c0-25.6-19.2-51.2-51.2-51.2H288c-25.6 0-51.2 19.2-51.2 51.2v441.6c0 25.6 19.2 51.2 51.2 51.2h441.6c32 0 51.2-19.2 51.2-44.8z" p-id="55637"></path><path d="M358.4 563.2l19.2 19.2 83.2 83.2 230.4-230.4c19.2-19.2 19.2-51.2-6.4-76.8l-32-19.2c-19.2-25.6-51.2-25.6-70.4-6.4L358.4 563.2 320 684.8c0 6.4 0 12.8 6.4 12.8s6.4 6.4 12.8 6.4l121.6-32-25.6-25.6-76.8 19.2 19.2-76.8-19.2-25.6z m249.6-204.8c6.4-6.4 19.2-6.4 25.6 0l32 32c6.4 6.4 6.4 19.2 0 25.6l-32 38.4-64-64 38.4-32z m-64 57.6l57.6 57.6-140.8 153.6-64-64 147.2-147.2z" p-id="55638"></path></svg>