<svg width="18" height="18" xmlns="http://www.w3.org/2000/svg"><g><path d="M.375 7.125V16.5c0 .621.504 1.125 1.125 1.125h15c.621 0 1.125-.504 1.125-1.125V7.125H.375z" stroke="#FFF" stroke-width=".75" fill-opacity=".3"/><path d="M3 9h3v2.25H3V9zm4.5 0h3v2.25h-3V9zM12 9h3v2.25h-3V9zM3 12.75h3V15H3v-2.25zm4.5 0h3V15h-3v-2.25zm4.5 0h3V15h-3v-2.25z"/><path d="M.375 7.125V3.75c0-.621.504-1.125 1.125-1.125h15c.621 0 1.125.504 1.125 1.125v3.375H.375z" stroke="#FFF" stroke-width=".75"/><path d="M3.75 0H6v5.25H3.75zM12 0h2.25v5.25H12z"/></g></svg>