<svg width="24" height="24" xmlns="http://www.w3.org/2000/svg"><path d="M22.408 9.306V4.938a2.92 2.92 0 0 0-2.916-2.916H4.924a2.92 2.92 0 0 0-2.916 2.916v14.568a2.92 2.92 0 0 0 2.916 2.916h14.568a2.92 2.92 0 0 0 2.916-2.916v-10.2zm-18.516-5.4a1.464 1.464 0 0 1 1.032-.432h14.568c.804 0 1.452.648 1.452 1.464v2.916H3.46V4.938c0-.384.156-.756.432-1.032zm6.132 10.5v-5.1h4.38v5.1h-4.38zm4.368 1.464v5.1h-4.368v-5.1h4.368zM8.56 14.406h-5.1v-5.1h5.1v5.1zm-4.668 6.132a1.464 1.464 0 0 1-.432-1.032v-3.648h5.1v5.1H4.924a1.403 1.403 0 0 1-1.032-.42zm17.064-1.032a1.45 1.45 0 0 1-1.452 1.452h-3.648v-5.1h5.1v3.648zm0-5.1h-5.1v-5.1h5.1v5.1z" fill-opacity=".65"/></svg>