<svg width="24" height="24" xmlns="http://www.w3.org/2000/svg"><path d="M21.156 21.313H1.844a.843.843 0 1 0 0 1.687h19.312a.843.843 0 1 0 0-1.688zM6.438 18.547l5.519-2.337a.776.776 0 0 0 .24-.16l9.308-9.309a1.693 1.693 0 0 0 .005-2.39l-1.858-1.859a1.693 1.693 0 0 0-2.391.005l-9.31 9.31a.75.75 0 0 0-.159.238l-2.339 5.518a.742.742 0 0 0 .16.822.74.74 0 0 0 .824.162zM18.453 3.69l.005-.005 1.856 1.856-.005.005L18.857 7l-1.856-1.856 1.453-1.453zm-9.18 9.18l6.534-6.534 1.856 1.856-6.534 6.535-3.22 1.364 1.363-3.22z" fill-opacity=".65"/></svg>