<svg width="24" height="24" xmlns="http://www.w3.org/2000/svg"><path d="M18.673 14.079a.84.84 0 0 0-.839.839v4.779a.435.435 0 0 1-.436.436H4.11a.435.435 0 0 1-.436-.436V5.937c0-.242.195-.436.436-.436h5.968a.84.84 0 0 0 0-1.678H4.112A2.114 2.114 0 0 0 2 5.934v13.76c0 1.163.947 2.11 2.112 2.11h13.291a2.114 2.114 0 0 0 2.112-2.112v-4.774a.845.845 0 0 0-.842-.84zm-8.76-4.927c-1.008 1.524-1.254 3.021-1.278 3.188a.84.84 0 0 0 .83.958.846.846 0 0 0 .83-.712c.007-.056.22-1.322 1.043-2.543 1.08-1.603 2.704-2.421 4.818-2.428.033.002.061.005.085.005a.84.84 0 0 0 .839-.84v-.986l2.355 2.24-2.358 1.964v-.801a.84.84 0 0 0-1.678 0v2.592a.842.842 0 0 0 1.374.647l4.455-3.71a.837.837 0 0 0 .298-.617.838.838 0 0 0-.258-.637l-4.453-4.24a.837.837 0 0 0-1.413.607v2.13c-2.947.247-4.61 1.861-5.49 3.183z" fill-opacity=".65"/></svg>