<?xml version="1.0" encoding="UTF-8"?>
<svg width="18px" height="18px" viewBox="0 0 18 18" version="1.1" xmlns="http://www.w3.org/2000/svg" xmlns:xlink="http://www.w3.org/1999/xlink">
    <!-- Generator: Sketch 54.1 (76490) - https://sketchapp.com -->
    <g id="生成JSON" stroke="none" stroke-width="1" fill="none" fill-rule="evenodd">
        <path d="M14,7.54984973 L14,15 L4,15 L4,7.54984973 L0,7.54984973 L9,0 L18,7.54984973 L14,7.54984973 Z M10.3143311,3.824 L10.3143311,10.4036703 C10.3143311,11.1042198 10.1951258,11.6124615 9.95671523,11.9283956 C9.71830464,12.2443297 9.33419868,12.4091648 8.81764238,12.4091648 C7.87724503,12.4091648 7.41366887,11.845978 7.41366887,10.7196044 L7.41366887,10.4174066 L5.864,10.4174066 L5.864,10.7333407 C5.864,11.6948791 6.11565563,12.4503736 6.61896689,12.9998242 C7.10903311,13.5492747 7.83750993,13.824 8.79115232,13.824 C9.89049007,13.824 10.6851921,13.5355385 11.1885033,12.9586154 C11.6388344,12.4091648 11.864,11.584989 11.864,10.4586154 L11.864,3.824 L10.3143311,3.824 Z" id="形状结合" fill="#FFFFFF"></path>
        <rect id="矩形" fill="#FFFFFF" x="0" y="16" width="18" height="2"></rect>
    </g>
</svg>