<svg class="icon" viewBox="0 0 1024 1024" xmlns="http://www.w3.org/2000/svg" width="200" height="200"><path d="M732.16 245.76h143.36c20.48 0 35.84-25.6 15.36-40.96L747.52 61.44c-15.36-15.36-40.96-5.12-40.96 15.36v143.36c5.12 15.36 15.36 25.6 25.6 25.6zm107.52 66.56H640V117.76c0-51.2-25.6-66.56-66.56-66.56H153.6c-20.48 0-35.84 15.36-35.84 40.96v844.8c0 20.48 15.36 35.84 35.84 35.84h716.8c20.48 0 35.84-15.36 35.84-40.96 0 0-5.12-558.08 0-552.96 0-15.36 0-66.56-66.56-66.56zM266.24 117.76h163.84c10.24 0 15.36 15.36 15.36 30.72s-5.12 35.84-15.36 35.84H266.24c-10.24 0-20.48-15.36-20.48-35.84s10.24-30.72 20.48-30.72zM245.76 281.6c0-20.48 5.12-35.84 15.36-35.84h230.4c10.24 0 15.36 15.36 15.36 35.84 0 20.48-5.12 35.84-15.36 35.84H266.24c-10.24 0-20.48-15.36-20.48-35.84zm399.36 409.6c0 30.72-5.12 56.32-10.24 76.8-10.24 20.48-20.48 40.96-46.08 56.32-20.48 15.36-51.2 20.48-81.92 20.48-40.96 0-71.68-10.24-92.16-30.72C394.24 793.6 384 757.76 384 716.8h76.8c0 20.48 5.12 35.84 10.24 40.96 10.24 15.36 20.48 20.48 40.96 20.48s30.72-5.12 40.96-15.36c5.12-10.24 10.24-30.72 10.24-61.44v-256h81.92V691.2z" fill="#fff"/></svg>