<svg width="24" height="24" xmlns="http://www.w3.org/2000/svg"><path d="M21.01 11.464a6.752 6.752 0 0 0-8.913-.56L3.444 2.248a.842.842 0 0 0-1.193 0 .842.842 0 0 0 0 1.193l8.655 8.656a6.752 6.752 0 0 0 10.106 8.913 6.749 6.749 0 0 0-.002-9.546zm-1.193 8.353a5.061 5.061 0 0 1-7.16 0 5.061 5.061 0 0 1 0-7.16 5.063 5.063 0 0 1 7.16 7.16zM8.745 7.52l1.79-1.791a.842.842 0 0 0 0-1.193.842.842 0 0 0-1.192 0l-1.79 1.79L8.744 7.52zm-.464-4.043a.842.842 0 0 0 0-1.193.842.842 0 0 0-1.193 0l-1.79 1.79L6.49 5.267l1.79-1.79z" fill-opacity=".65"/></svg>