<svg class="icon" viewBox="0 0 1024 1024" xmlns="http://www.w3.org/2000/svg" width="200" height="200"><path d="M174.994 312.168H888.52v-84.675c0-9.597-7.338-16.935-16.935-16.935H442.567l-75.643-90.32H22.58c-9.597 0-16.935 7.339-16.935 16.935v744.009c0 9.596 7.338 16.935 16.935 16.935h40.08l92.577-569.014c1.694-9.597 10.726-16.935 19.757-16.935zM624.9 588.207c-10.161 0-18.629 3.387-24.274 10.726s-9.032 19.193-9.032 35.563 2.823 28.225 9.032 35.564 14.677 10.725 24.838 10.725c10.726 0 19.193-3.387 25.403-10.725s9.032-19.758 9.032-37.822c0-15.241-3.387-26.531-9.597-33.87-6.21-6.21-14.677-10.16-25.402-10.16z" fill="#fff"/><path d="M998.598 382.165h-770.54c-9.033 0-18.065 7.339-19.194 16.37l-87.497 483.776c-1.693 9.032 4.516 16.37 13.548 16.37h770.54c9.032 0 18.064-7.338 19.193-16.37l87.498-483.775c1.693-8.468-4.516-16.37-13.548-16.37zm-650.303 259.67c0 18.628-1.693 32.74-5.08 42.337-3.387 9.596-10.161 18.064-19.757 24.838-10.161 6.774-22.58 10.16-38.386 10.16-16.37 0-29.354-2.257-38.386-6.773s-16.37-10.726-20.887-19.758c-5.08-8.467-7.903-19.192-9.032-31.611l48.547-6.774c0 7.338.565 12.419 1.694 15.806s3.387 6.209 6.21 8.467c1.693 1.694 4.515 2.258 8.467 2.258 5.645 0 9.596-2.258 12.419-6.21 2.822-3.951 3.951-11.29 3.951-21.45v-99.917h50.805v88.627zm164.27 50.804c-5.645 9.032-14.113 15.806-24.274 20.322s-23.709 6.774-39.515 6.774c-27.66 0-46.853-5.08-57.579-15.806s-16.935-24.273-18.064-40.643l47.983-2.823c1.129 7.903 3.387 13.548 6.21 18.064 5.08 6.774 12.418 10.161 22.58 10.161 7.338 0 12.983-1.694 16.934-5.08s5.645-7.339 5.645-11.855-1.693-7.903-5.645-11.29c-3.951-3.387-12.419-6.774-25.967-9.596-22.015-5.08-37.821-11.855-47.418-19.758-9.596-8.467-14.112-18.628-14.112-31.612 0-8.467 2.258-16.37 7.338-23.709 5.08-7.338 12.42-13.548 22.016-17.5 9.596-4.515 23.144-6.209 40.08-6.209 20.886 0 36.692 3.952 47.982 11.855 10.725 7.903 17.499 20.322 19.757 37.257l-47.418 2.822c-1.129-7.338-3.951-12.983-7.903-15.806-3.951-3.387-9.596-5.08-16.935-5.08-5.645 0-10.16 1.129-13.548 3.951s-4.516 5.645-4.516 9.032c0 2.823 1.13 5.08 3.952 6.774 2.258 2.258 7.903 3.952 16.935 6.21 22.015 4.516 37.821 9.596 47.418 14.677 9.596 5.08 16.37 10.725 20.886 18.064 4.516 7.338 6.774 15.241 6.774 24.273-.565 7.903-3.387 17.5-9.597 26.531zm187.977-11.854c-6.209 12.419-15.806 22.015-27.66 28.79-12.419 6.773-27.096 10.16-45.724 10.16-18.629 0-33.87-2.822-45.725-9.032-11.854-5.645-22.015-15.241-29.354-27.66-7.338-12.983-11.29-28.79-11.29-47.982 0-26.532 7.339-47.418 22.58-62.66 14.677-14.677 35.564-22.58 62.095-22.58 27.096 0 47.983 7.339 63.224 22.016 14.677 14.677 22.015 34.999 22.015 61.53-.564 19.193-3.951 34.999-10.16 47.418zm193.623 35.563h-47.417l-61.53-89.755v89.755h-47.419v-163.14h47.418l61.53 90.32v-90.32h47.418v163.14z" fill="#fff"/></svg>