<?xml version="1.0" encoding="UTF-8"?>
<svg width="18px" height="18px" viewBox="0 0 18 18" version="1.1" xmlns="http://www.w3.org/2000/svg" xmlns:xlink="http://www.w3.org/1999/xlink">
    <!-- Generator: Sketch 54.1 (76490) - https://sketchapp.com -->
    <g id="导入JSON" stroke="none" stroke-width="1" fill="none" fill-rule="evenodd">
        <path d="M12.376,4 L14.248,4 L14.248,11.728 C14.248,13.04 13.976,14 13.432,14.64 C12.824,15.312 11.864,15.648 10.536,15.648 C9.384,15.648 8.504,15.328 7.912,14.688 C7.304,14.048 7,13.168 7,12.048 L7,11.68 L8.872,11.68 L8.872,12.032 C8.872,13.344 9.432,14 10.568,14 C11.192,14 11.656,13.808 11.944,13.44 C12.232,13.072 12.376,12.48 12.376,11.664 L12.376,4 Z" id="J" fill="#FFFFFF" fill-rule="nonzero"></path>
        <path d="M7.56119014,5.43986979 L9,4 L10,10 L4.00368064,9 L5.44065086,7.56197121 L-0.0606601718,2.06066017 L2.06066017,-0.0606601718 L7.56119014,5.43986979 Z" id="形状结合" fill="#FFFFFF" fill-rule="nonzero"></path>
        <path d="M5.20836743,0.5 L0.5,5.14917386 L0.5,14 C0.5,15.9329966 2.06700338,17.5 4,17.5 L14,17.5 C15.9329966,17.5 17.5,15.9329966 17.5,14 L17.5,4 C17.5,2.06700338 15.9329966,0.5 14,0.5 L5.20836743,0.5 Z" id="路径" stroke="#FFFFFF"></path>
    </g>
</svg>