<?xml version="1.0" standalone="no"?><!DOCTYPE svg PUBLIC "-//W3C//DTD SVG 1.1//EN" "http://www.w3.org/Graphics/SVG/1.1/DTD/svg11.dtd"><svg t="1571227469240" class="icon" viewBox="0 0 1024 1024" version="1.1" xmlns="http://www.w3.org/2000/svg" p-id="11529" xmlns:xlink="http://www.w3.org/1999/xlink" width="200" height="200"><defs><style type="text/css"></style></defs><path d="M128 164.571429v694.857142a36.571429 36.571429 0 0 0 36.571429 36.571429h694.857142a36.571429 36.571429 0 0 0 36.571429-36.571429V164.571429a36.571429 36.571429 0 0 0-36.571429-36.571429H164.571429a36.571429 36.571429 0 0 0-36.571429 36.571429z m0-109.714286h768a73.142857 73.142857 0 0 1 73.142857 73.142857v768a73.142857 73.142857 0 0 1-73.142857 73.142857H128a73.142857 73.142857 0 0 1-73.142857-73.142857V128a73.142857 73.142857 0 0 1 73.142857-73.142857z m171.611429 568.064V460.434286c-30.244571 23.222857-50.596571 34.816-61.074286 34.816-5.010286 0-9.435429-2.011429-13.312-5.979429A19.291429 19.291429 0 0 1 219.428571 475.428571c0-6.070857 1.901714-10.532571 5.723429-13.385142 3.803429-2.870857 10.532571-6.546286 20.169143-11.081143 14.409143-6.784 25.929143-13.933714 34.56-21.430857 8.630857-7.497143 16.274286-15.890286 22.948571-25.179429 6.656-9.289143 11.008-14.994286 13.019429-17.133714 2.029714-2.139429 5.851429-3.218286 11.428571-3.218286a18.285714 18.285714 0 0 1 15.177143 7.314286c3.821714 4.882286 5.723429 11.611429 5.723429 20.187428v204.470857c0 23.917714-8.155429 35.876571-24.466286 35.876572-7.259429 0-13.092571-2.432-17.499429-7.314286-4.388571-4.882286-6.601143-12.068571-6.601142-21.613714z m174.939428-17.664h93.202286c9.289143 0 16.365714 1.901714 21.248 5.705143 4.882286 3.803429 7.314286 8.996571 7.314286 15.542857 0 5.833143-1.92 10.770286-5.796572 14.811428-3.858286 4.059429-9.728 6.070857-17.590857 6.070858h-131.419429c-8.923429 0-15.908571-2.468571-20.900571-7.405715a23.698286 23.698286 0 0 1-7.497143-17.408c0-4.297143 1.609143-9.965714 4.827429-17.060571 3.218286-7.076571 6.729143-12.635429 10.532571-16.694857a1020.763429 1020.763429 0 0 1 42.861714-42.24c12.726857-11.702857 21.833143-19.419429 27.318858-23.113143a157.586286 157.586286 0 0 0 24.374857-20.809143c6.491429-6.948571 11.428571-14.098286 14.811428-21.430857 3.401143-7.314286 5.101714-14.482286 5.101715-21.504 0-7.625143-1.828571-14.445714-5.449143-20.461714a37.741714 37.741714 0 0 0-14.811429-14.006858 42.770286 42.770286 0 0 0-20.461714-5.010285c-15.597714 0-27.849143 6.857143-36.790857 20.534857-1.188571 1.792-3.181714 6.674286-5.979429 14.646857-2.797714 7.972571-5.942857 14.116571-9.453714 18.395429-3.510857 4.278857-8.667429 6.436571-15.451429 6.436571a20.114286 20.114286 0 0 1-14.811428-5.906286c-3.931429-3.913143-5.906286-9.270857-5.906286-16.054857 0-8.228571 1.846857-16.786286 5.540571-25.728a73.691429 73.691429 0 0 1 16.512-24.283428c7.314286-7.259429 16.603429-13.129143 27.867429-17.590858 11.245714-4.461714 24.429714-6.692571 39.552-6.692571 18.212571 0 33.737143 2.852571 46.610286 8.576 8.32 3.803429 15.652571 9.051429 21.942857 15.725714 6.326857 6.656 11.227429 14.354286 14.738286 23.113143 3.529143 8.740571 5.284571 17.828571 5.284571 27.227429 0 14.756571-3.657143 28.178286-10.989714 40.265143-7.314286 12.086857-14.793143 21.558857-22.418286 28.397714-7.606857 6.838857-20.388571 17.590857-38.290286 32.237714-17.92 14.628571-30.208 26.002286-36.882285 34.102857a101.394286 101.394286 0 0 0-8.740572 11.611429z m215.113143-115.894857c10.953143 0 20.370286-3.218286 28.288-9.654857 7.917714-6.418286 11.885714-15.652571 11.885714-27.666286 0-9.179429-3.163429-17.060571-9.472-23.661714-6.308571-6.619429-14.811429-9.910857-25.526857-9.910858-7.259429 0-13.257143 1.005714-17.956571 3.035429a28.891429 28.891429 0 0 0-11.154286 8.045714c-2.742857 3.328-5.321143 7.606857-7.771429 12.836572-2.432 5.248-4.662857 10.185143-6.692571 14.811428a12.562286 12.562286 0 0 1-6.436571 5.906286c-3.090286 1.426286-6.656 2.139429-10.715429 2.139429-4.754286 0-9.142857-1.92-13.110857-5.796572-3.986286-3.876571-5.979429-9.014857-5.979429-15.451428 0-6.180571 1.865143-12.708571 5.613715-19.565715 3.748571-6.820571 9.234286-13.348571 16.438857-19.529143 7.186286-6.198857 16.146286-11.154286 26.88-14.921142 10.697143-3.748571 22.674286-5.613714 35.876571-5.613715 11.556571 0 22.089143 1.572571 31.616 4.717715 9.508571 3.163429 17.792 7.716571 24.813714 13.659428 7.021714 5.961143 12.324571 12.873143 15.908572 20.717714 3.565714 7.862857 5.339429 16.310857 5.339428 25.362286 0 11.904-2.578286 22.125714-7.771428 30.628572-5.174857 8.502857-12.580571 16.822857-22.217143 24.905142 9.270857 4.992 17.097143 10.715429 23.478857 17.152 6.363429 6.418286 11.154286 13.531429 14.372572 21.339429 3.218286 7.789714 4.827429 16.219429 4.827428 25.252571 0 10.843429-2.194286 21.321143-6.528 31.451429a80.182857 80.182857 0 0 1-19.2 27.044571 91.538286 91.538286 0 0 1-30.08 18.56 106.386286 106.386286 0 0 1-38.491428 6.692572c-14.262857 0-27.062857-2.56-38.4-7.68-11.300571-5.12-20.608-11.52-27.940572-19.2a87.405714 87.405714 0 0 1-16.603428-23.826286c-3.748571-8.228571-5.613714-14.994286-5.613715-20.352 0-6.912 2.230857-12.470857 6.692572-16.694857 4.461714-4.224 10.020571-6.345143 16.694857-6.345143a17.737143 17.737143 0 0 1 9.636571 2.944 13.897143 13.897143 0 0 1 6.070857 7.058286c6.198857 16.548571 12.836571 28.836571 19.931429 36.864 7.076571 8.045714 17.042286 12.068571 29.897143 12.068571a44.964571 44.964571 0 0 0 38.308571-21.613714c4.461714-7.131429 6.692571-15.414857 6.692572-24.813714 0-13.933714-3.821714-24.868571-11.428572-32.768-7.625143-7.917714-18.212571-11.885714-31.780571-11.885715-2.377143 0-6.070857 0.237714-11.081143 0.731429-4.992 0.457143-8.228571 0.694857-9.636571 0.694857-6.546286 0-11.611429-1.645714-15.177143-4.900571-3.584-3.291429-5.357714-7.826286-5.357715-13.659429a17.005714 17.005714 0 0 1 6.418286-13.842286c4.297143-3.510857 10.660571-5.266286 19.108572-5.266285h7.314285z" p-id="11530"></path></svg>