<?xml version="1.0" encoding="UTF-8"?>
<svg width="18px" height="18px" viewBox="0 0 18 18" version="1.1" xmlns="http://www.w3.org/2000/svg" xmlns:xlink="http://www.w3.org/1999/xlink">
    <!-- Generator: Sketch 54.1 (76490) - https://sketchapp.com -->
    <g id="预览" stroke="none" stroke-width="1" fill="none" fill-rule="evenodd">
        <path d="M16,10.951723 C15.2106399,10.951723 14.217942,10.951723 13.0219065,10.951723 C10.3406355,10.951723 8.14130912,12.3008363 6.42392735,14.9990629 C6.9106171,15.8287672 7.35618038,16.4957462 7.7606172,17 C7.97280173,17.2645527 8.2748139,17.6103187 8.71974401,18 L4,18 C2.8954305,18 2,17.1045695 2,16 L2,2 C2,0.8954305 2.8954305,2.02906125e-16 4,0 L14,0 C15.1045695,-2.02906125e-16 16,0.8954305 16,2 L16,10.951723 Z M3,2 L15,2 L15,3 L3,3 L3,2 Z M3,5 L15,5 L15,6 L3,6 L3,5 Z M3,8 L15,8 L15,9 L3,9 L3,8 Z M3,11 L7,11 L7,12 L3,12 L3,11 Z" id="矩形-2" fill="#FFFFFF"></path>
        <path d="M12.9851084,18 C11.010508,18 9.34880523,17 8,15 C9.34067389,13 11.0023767,12 12.9851084,12 C14.9678402,12 16.654075,13 18.043813,15 C16.6459437,17 14.9597088,18 12.9851084,18 Z M12.9851084,17 C14.0896779,17 14.9851084,16.1045695 14.9851084,15 C14.9851084,13.8954305 14.0896779,13 12.9851084,13 C11.8805389,13 10.9851084,13.8954305 10.9851084,15 C10.9851084,16.1045695 11.8805389,17 12.9851084,17 Z" id="形状结合" fill="#FFFFFF"></path>
    </g>
</svg>