<svg width="24" height="24" xmlns="http://www.w3.org/2000/svg"><path d="M18.5 16.813V8.188c0-.933-.755-1.688-1.688-1.688H8.188c-.932 0-1.687.755-1.687 1.688v8.624c0 .933.755 1.688 1.688 1.688h8.624c.933 0 1.688-.755 1.688-1.688zm-1.688 0H8.188V8.188h8.626v8.624zM2.845 8.092a.843.843 0 0 0 .844-.843V3.687H7.25A.843.843 0 1 0 7.25 2H3.687A1.69 1.69 0 0 0 2 3.688V7.25c0 .466.377.844.844.844zm4.406 13.22H3.687V17.75a.843.843 0 1 0-1.687 0v3.563A1.69 1.69 0 0 0 3.688 23H7.25a.843.843 0 1 0 0-1.688zM21.313 2H17.75a.843.843 0 1 0 0 1.688h3.563V7.25a.843.843 0 1 0 1.687 0V3.687A1.69 1.69 0 0 0 21.312 2zm.843 14.906a.843.843 0 0 0-.843.844v3.563H17.75a.843.843 0 1 0 0 1.687h3.563A1.69 1.69 0 0 0 23 21.312V17.75a.843.843 0 0 0-.844-.844z" fill-opacity=".65"/></svg>