<svg width="24" height="24" xmlns="http://www.w3.org/2000/svg"><path d="M5.828 8.64H5.02c-.744 0-1.368.6-1.368 1.367v6.048h1.56V14.4a.81.81 0 0 1 .816-.816h12.264a.81.81 0 0 1 .816.816v1.68h1.584v-6.072c0-.744-.6-1.368-1.368-1.368h-.814a.793.793 0 0 1-.194.024H6.028a.839.839 0 0 1-.2-.024zm-.616-1.633V2.831a.81.81 0 0 1 .816-.816h12.264a.81.81 0 0 1 .816.816v4.176h.192c1.656 0 3 1.344 3 3v6.864a.81.81 0 0 1-.792.84h-2.4v4.176a.775.775 0 0 1-.792.816H6.028a.81.81 0 0 1-.816-.816v-4.2H2.836a.81.81 0 0 1-.816-.816v-6.864c0-1.656 1.344-3 3-3h.192zm1.632 0h10.632v-3.36H6.844v3.36zm0 14.064h10.632v-5.856H6.844v5.856zm4.824-9.12H6.676a.81.81 0 0 1-.816-.816.81.81 0 0 1 .816-.816h4.992a.81.81 0 0 1 .816.816.81.81 0 0 1-.816.816z" fill-opacity=".65"/></svg>