<?xml version="1.0" standalone="no"?><!DOCTYPE svg PUBLIC "-//W3C//DTD SVG 1.1//EN" "http://www.w3.org/Graphics/SVG/1.1/DTD/svg11.dtd"><svg t="1571227710874" class="icon" viewBox="0 0 1024 1024" version="1.1" xmlns="http://www.w3.org/2000/svg" p-id="28885" xmlns:xlink="http://www.w3.org/1999/xlink" width="200" height="200"><defs><style type="text/css"></style></defs><path d="M512 85.333333C276.48 85.333333 85.333333 276.48 85.333333 512S276.48 938.666667 512 938.666667 938.666667 747.52 938.666667 512 747.52 85.333333 512 85.333333z m0 796.444445c-203.662222 0-369.777778-166.115556-369.777778-369.777778S308.337778 142.222222 512 142.222222 881.777778 308.337778 881.777778 512 715.662222 881.777778 512 881.777778z" p-id="28886"></path><path d="M512 512m-250.311111 0a250.311111 250.311111 0 1 0 500.622222 0 250.311111 250.311111 0 1 0-500.622222 0Z" p-id="28887"></path></svg>