<svg width="18" height="18" xmlns="http://www.w3.org/2000/svg"><g><path d="M2.25.375C1.214.375.375 1.215.375 2.25v6.533c0 1.496.595 2.93 1.655 3.985l3.228 3.217a5.625 5.625 0 0 0 3.97 1.64h6.522c1.036 0 1.875-.84 1.875-1.875V9.254a5.625 5.625 0 0 0-1.65-3.98L12.718 2.02A5.625 5.625 0 0 0 8.743.375H2.25z" stroke="#FFF" stroke-width=".75" fill-opacity=".3"/><path d="M5.457 4.363c.95-1.11 2.317-1.5 4.101-1.17 1.784.33 3.287 2.071 4.508 5.226l1.481-.08-1.987 3.224-3.22-2.542 1.542-.365c-.636-2.393-1.818-3.737-3.546-4.031-1.728-.295-2.688-.382-2.88-.262zm7.086 9.274c-.95 1.11-2.317 1.5-4.101 1.17-1.784-.33-3.287-2.071-4.508-5.226l-1.481.08L4.44 6.436l3.22 2.542-1.542.365c.636 2.393 1.818 3.737 3.546 4.031 1.728.295 2.688.382 2.88.262z"/></g></svg>