<svg class="icon" viewBox="0 0 1024 1024" xmlns="http://www.w3.org/2000/svg" width="200" height="200"><path d="M113.778 28.444a85.333 85.333 0 0 0-85.334 85.334v796.444a85.333 85.333 0 0 0 85.334 85.334h796.444a85.333 85.333 0 0 0 85.334-85.334V113.778a85.333 85.333 0 0 0-85.334-85.334H113.778zm0-28.444h796.444A113.778 113.778 0 0 1 1024 113.778v796.444A113.778 113.778 0 0 1 910.222 1024H113.778A113.778 113.778 0 0 1 0 910.222V113.778A113.778 113.778 0 0 1 113.778 0z" fill="#fff"/><path d="M434.83 345.259L296.135 466.233a33.052 33.052 0 0 0 0 50.432L434.83 637.127a16.285 16.285 0 0 0 16.782 2.446 19.058 19.058 0 0 0 10.525-14.25v-74.411c80.896 0 184.86 0 269.739 158.436 3.697 4.238 7.11 0 7.68-4.182C729.6 435.03 539.62 411.904 462.166 411.904v-50.432a19.37 19.37 0 0 0-8.818-17.664 15.844 15.844 0 0 0-18.233.853l-.285.598z" fill="#fff"/></svg>