<svg class="icon" viewBox="0 0 1024 1024" xmlns="http://www.w3.org/2000/svg" width="200" height="200"><path d="M.008 510.943V181.595c0-52.266 18.886-96.707 56.526-132.564C89.04 18.16 128.281 1.65 173.432.215c3.995-.132 7.99-.132 11.985-.132Q513.428.083 841.472 0c39.489 0 75.478 10.483 107.306 33.86 43.616 32.06 68.181 75.394 73.943 129.213a253.87 253.87 0 0 1 1.155 26.53q0 324.89.116 649.797c0 43.071-12.035 81.95-38.812 115.56-36.17 45.466-83.914 68.726-141.975 68.792q-331.13.43-662.295 0c-87.199 0-159.176-58.605-177.006-143.74A200.003 200.003 0 0 1 .19 839.746q-.43-164.41-.182-328.804zm179.218 15.865V92.448a32.192 32.192 0 0 0-4.028-.247c-26.215 1.898-48.073 12.514-64.68 33.15-14.066 17.499-19.497 37.606-19.48 60.041q.346 326.724.28 653.43a111.582 111.582 0 0 0 3.4 28.296c10.384 39.027 44.987 64.632 86.688 64.698q102.155.148 204.261 0h455.425c23.756 0 44.755-7.116 62.386-23.113 20.686-18.803 29.27-42.708 29.27-70.31V192.772c0-6.24-.099-12.514-.693-18.721q-5.316-54.066-55.271-75.66a79.753 79.753 0 0 0-32.324-6.108v434.525zm573.578-434.36H270.75v342.126h482.053z" fill="#fff"/><path d="M684.672 391.916h-90.88V148.198h90.88z" fill="#fff"/></svg>