<svg class="icon" viewBox="0 0 1024 1024" xmlns="http://www.w3.org/2000/svg" width="200" height="200"><path d="M955.733 1024H68.267C27.307 1024 0 996.693 0 955.733V375.467h68.267v580.266h887.466V375.467H1024v580.266c0 40.96-27.307 68.267-68.267 68.267z" fill="#fff"/><path d="M136.533 750.933H409.6V819.2H136.533zm682.667-81.92L587.093 436.907c34.134-47.787 61.44-102.4 61.44-163.84 0-129.707-109.226-238.934-238.933-238.934S170.667 143.36 170.667 273.067 279.893 512 409.6 512c47.787 0 88.747-13.653 122.88-34.133L771.413 716.8l47.787-47.787zM238.933 273.067c0-95.574 75.094-170.667 170.667-170.667s170.667 75.093 170.667 170.667S505.173 443.733 409.6 443.733 238.933 368.64 238.933 273.067z" fill="#fff"/></svg>