<svg width="24" height="24" xmlns="http://www.w3.org/2000/svg"><path d="M22.754 21.559l-4.821-4.82A8.963 8.963 0 0 0 20 11a9 9 0 0 0-9-9 9 9 0 0 0-9 9 9 9 0 0 0 9 9 8.963 8.963 0 0 0 5.74-2.067l4.82 4.82a.845.845 0 0 0 1.195 0 .85.85 0 0 0-.001-1.194zm-8.909-3.82c-.9.381-1.856.573-2.845.573a7.296 7.296 0 0 1-5.17-2.142A7.296 7.296 0 0 1 3.687 11 7.296 7.296 0 0 1 5.83 5.83 7.296 7.296 0 0 1 11 3.688a7.296 7.296 0 0 1 5.17 2.142A7.296 7.296 0 0 1 18.313 11a7.296 7.296 0 0 1-2.142 5.17 7.27 7.27 0 0 1-2.326 1.568z" fill-opacity=".65"/></svg>