<?xml version="1.0" standalone="no"?><!DOCTYPE svg PUBLIC "-//W3C//DTD SVG 1.1//EN" "http://www.w3.org/Graphics/SVG/1.1/DTD/svg11.dtd"><svg t="1571227547963" class="icon" viewBox="0 0 1024 1024" version="1.1" xmlns="http://www.w3.org/2000/svg" p-id="17931" xmlns:xlink="http://www.w3.org/1999/xlink" width="200" height="200"><defs><style type="text/css"></style></defs><path d="M938.6 244H85.4C38.3 244 0 282.3 0 329.4v365.1C0 741.7 38.3 780 85.4 780h853.1c47.2 0 85.4-38.3 85.4-85.4V329.4c0.1-47.1-38.2-85.4-85.3-85.4zM703.8 694.5c0 8.5-4.9 15.4-11 15.4H81.1c-6.1 0-11-6.9-11-15.4V329.4c0-8.5 4.9-15.4 11-15.4h611.7c6.1 0 11 6.9 11 15.4v365.1z m222.9-213.9l-46.1 79.8c-6.5 11.3-22.8 11.3-29.3 0l-46.1-79.8c-6.5-11.3 1.6-25.4 14.6-25.4h92.1c13.2 0 21.3 14.1 14.8 25.4z" p-id="17932"></path></svg>