<?xml version="1.0" standalone="no"?><!DOCTYPE svg PUBLIC "-//W3C//DTD SVG 1.1//EN" "http://www.w3.org/Graphics/SVG/1.1/DTD/svg11.dtd"><svg t="1571238920663" class="icon" viewBox="0 0 1024 1024" version="1.1" xmlns="http://www.w3.org/2000/svg" p-id="45864" xmlns:xlink="http://www.w3.org/1999/xlink" width="200" height="200"><defs><style type="text/css"></style></defs><path d="M901.12 122.88h-757.76c-20.48 0-34.133333 13.653333-34.133333 34.133333v6.826667c0 20.48 13.653333 34.133333 34.133333 34.133333h757.76c6.826667 0 13.653333 0 20.48-6.826666s6.826667-13.653333 6.826667-20.48v-6.826667c0-27.306667-13.653333-40.96-27.306667-40.96z" fill="" p-id="45865"></path><path d="M764.586667 88.746667h-68.266667c-20.48 0-34.133333 13.653333-34.133333 34.133333v68.266667c0 20.48 13.653333 34.133333 34.133333 34.133333h68.266667c20.48 0 34.133333-13.653333 34.133333-34.133333v-68.266667c0-20.48-13.653333-34.133333-34.133333-34.133333zM901.12 430.08h-757.76c-20.48 0-34.133333 13.653333-34.133333 34.133333v6.826667c0 20.48 13.653333 34.133333 34.133333 34.133333h757.76c20.48 0 34.133333-13.653333 34.133333-34.133333v-6.826667c-6.826667-20.48-20.48-34.133333-34.133333-34.133333z" fill="" p-id="45866"></path><path d="M552.96 395.946667h-68.266667c-20.48 0-34.133333 13.653333-34.133333 34.133333v68.266667c0 20.48 13.653333 34.133333 34.133333 34.133333h68.266667c20.48 0 34.133333-13.653333 34.133333-34.133333v-68.266667c0-20.48-13.653333-34.133333-34.133333-34.133333zM901.12 737.28h-757.76c-6.826667 0-13.653333 0-20.48 6.826667-6.826667 6.826667-6.826667 13.653333-6.826667 20.48v6.826666c0 20.48 13.653333 34.133333 34.133334 34.133334h757.76c20.48 0 34.133333-13.653333 34.133333-34.133334v-6.826666c-13.653333-13.653333-27.306667-27.306667-40.96-27.306667z" fill="" p-id="45867"></path><path d="M354.986667 703.146667h-68.266667c-20.48 0-34.133333 13.653333-34.133333 34.133333v68.266667c0 20.48 13.653333 34.133333 34.133333 34.133333h68.266667c20.48 0 34.133333-13.653333 34.133333-34.133333v-68.266667c0-20.48-13.653333-34.133333-34.133333-34.133333z" fill="" p-id="45868"></path></svg>