<?xml version="1.0" standalone="no"?><!DOCTYPE svg PUBLIC "-//W3C//DTD SVG 1.1//EN" "http://www.w3.org/Graphics/SVG/1.1/DTD/svg11.dtd"><svg t="1571238878024" class="icon" viewBox="0 0 1138 1024" version="1.1" xmlns="http://www.w3.org/2000/svg" p-id="45038" xmlns:xlink="http://www.w3.org/1999/xlink" width="222.265625" height="200"><defs><style type="text/css"></style></defs><path d="M739.555556 113.777778l-341.333333 0c-219.932444 0-398.222222 178.289778-398.222222 398.222222s178.289778 398.222222 398.222222 398.222222l341.333333 0c219.932444 0 398.222222-178.289778 398.222222-398.222222s-178.289778-398.222222-398.222222-398.222222zM739.555556 796.444444l-341.333333 0c-156.842667 0-284.444444-127.601778-284.444444-284.444444s127.601778-284.444444 284.444444-284.444444l341.333333 0c156.842667 0 284.444444 127.601778 284.444444 284.444444s-127.601778 284.444444-284.444444 284.444444z" p-id="45039"></path><path d="M568.888889 512c0 94.264889-76.401778 170.666667-170.666667 170.666667s-170.666667-76.430222-170.666667-170.666667 76.430222-170.666667 170.666667-170.666667 170.666667 76.401778 170.666667 170.666667z" p-id="45040"></path></svg>